REM DIRINDEX 1\2\4,1\2\5,1\2\6,1\3\7,1\3\8,1\3\9,1\3\10
REM DIRNAME cjc057,folder01,folder02,folder03,folder04,folder05,folder06,folder07,folder08,folder09
TITLE ""
FILE "b_042.mp3" MP3
  TRACK 01 AUDIO
    TITLE "0:"
    INDEX 01 00:00:00
  TRACK 02 AUDIO
    TITLE "7:cjc057_05429"
    INDEX 01 00:00:13
  TRACK 03 AUDIO
    TITLE "0:"
    INDEX 01 00:01:40
  TRACK 04 AUDIO
    TITLE "8:cjc057_05430"
    INDEX 01 00:01:71
  TRACK 05 AUDIO
    TITLE "0:"
    INDEX 01 00:03:31
  TRACK 06 AUDIO
    TITLE "9:cjc057_05431"
    INDEX 01 00:03:74
  TRACK 07 AUDIO
    TITLE "0:"
    INDEX 01 00:07:07
  TRACK 08 AUDIO
    TITLE "7:cjc057_05432"
    INDEX 01 00:08:15
  TRACK 09 AUDIO
    TITLE "0:"
    INDEX 01 00:09:30
  TRACK 10 AUDIO
    TITLE "8:cjc057_05433"
    INDEX 01 00:09:63
  TRACK 11 AUDIO
    TITLE "0:"
    INDEX 01 00:11:56
  TRACK 12 AUDIO
    TITLE "9:cjc057_05434"
    INDEX 01 00:12:26
  TRACK 13 AUDIO
    TITLE "0:"
    INDEX 01 00:15:60
  TRACK 14 AUDIO
    TITLE "7:cjc057_05435"
    INDEX 01 00:16:67
  TRACK 15 AUDIO
    TITLE "0:"
    INDEX 01 00:18:21
  TRACK 16 AUDIO
    TITLE "8:cjc057_05436"
    INDEX 01 00:18:50
  TRACK 17 AUDIO
    TITLE "0:"
    INDEX 01 00:20:20
  TRACK 18 AUDIO
    TITLE "9:cjc057_05437"
    INDEX 01 00:20:63
  TRACK 19 AUDIO
    TITLE "0:"
    INDEX 01 00:24:20
  TRACK 20 AUDIO
    TITLE "7:cjc057_05438"
    INDEX 01 00:25:27
  TRACK 21 AUDIO
    TITLE "0:"
    INDEX 01 00:26:48
  TRACK 22 AUDIO
    TITLE "8:cjc057_05439"
    INDEX 01 00:27:06
  TRACK 23 AUDIO
    TITLE "0:"
    INDEX 01 00:28:35
  TRACK 24 AUDIO
    TITLE "9:cjc057_05440"
    INDEX 01 00:29:03
  TRACK 25 AUDIO
    TITLE "0:"
    INDEX 01 00:32:11
  TRACK 26 AUDIO
    TITLE "7:cjc057_05441"
    INDEX 01 00:33:17
  TRACK 27 AUDIO
    TITLE "0:"
    INDEX 01 00:34:34
  TRACK 28 AUDIO
    TITLE "8:cjc057_05442"
    INDEX 01 00:34:65
  TRACK 29 AUDIO
    TITLE "0:"
    INDEX 01 00:36:72
  TRACK 30 AUDIO
    TITLE "9:cjc057_05443"
    INDEX 01 00:37:42
  TRACK 31 AUDIO
    TITLE "0:"
    INDEX 01 00:41:45
  TRACK 32 AUDIO
    TITLE "7:cjc057_05444"
    INDEX 01 00:42:51
  TRACK 33 AUDIO
    TITLE "0:"
    INDEX 01 00:44:12
  TRACK 34 AUDIO
    TITLE "8:cjc057_05445"
    INDEX 01 00:44:42
  TRACK 35 AUDIO
    TITLE "0:"
    INDEX 01 00:45:67
  TRACK 36 AUDIO
    TITLE "9:cjc057_05446"
    INDEX 01 00:46:33
  TRACK 37 AUDIO
    TITLE "0:"
    INDEX 01 00:50:23
  TRACK 38 AUDIO
    TITLE "7:cjc057_05447"
    INDEX 01 00:51:26
  TRACK 39 AUDIO
    TITLE "0:"
    INDEX 01 00:52:55
  TRACK 40 AUDIO
    TITLE "8:cjc057_05448"
    INDEX 01 00:53:09
  TRACK 41 AUDIO
    TITLE "0:"
    INDEX 01 00:54:40
  TRACK 42 AUDIO
    TITLE "9:cjc057_05449"
    INDEX 01 00:55:10
  TRACK 43 AUDIO
    TITLE "0:"
    INDEX 01 00:58:54
  TRACK 44 AUDIO
    TITLE "7:cjc057_05450"
    INDEX 01 00:59:63
  TRACK 45 AUDIO
    TITLE "0:"
    INDEX 01 01:01:15
  TRACK 46 AUDIO
    TITLE "8:cjc057_05451"
    INDEX 01 01:01:48
  TRACK 47 AUDIO
    TITLE "0:"
    INDEX 01 01:04:11
  TRACK 48 AUDIO
    TITLE "9:cjc057_05452"
    INDEX 01 01:04:54
  TRACK 49 AUDIO
    TITLE "0:"
    INDEX 01 01:07:37
  TRACK 50 AUDIO
    TITLE "7:cjc057_05453"
    INDEX 01 01:08:42
  TRACK 51 AUDIO
    TITLE "0:"
    INDEX 01 01:09:59
  TRACK 52 AUDIO
    TITLE "8:cjc057_05454"
    INDEX 01 01:10:16
  TRACK 53 AUDIO
    TITLE "0:"
    INDEX 01 01:11:31
  TRACK 54 AUDIO
    TITLE "9:cjc057_05455"
    INDEX 01 01:11:72
  TRACK 55 AUDIO
    TITLE "0:"
    INDEX 01 01:15:11
  TRACK 56 AUDIO
    TITLE "7:cjc057_05456"
    INDEX 01 01:16:16
  TRACK 57 AUDIO
    TITLE "0:"
    INDEX 01 01:17:47
  TRACK 58 AUDIO
    TITLE "8:cjc057_05457"
    INDEX 01 01:18:02
  TRACK 59 AUDIO
    TITLE "0:"
    INDEX 01 01:19:30
  TRACK 60 AUDIO
    TITLE "9:cjc057_05458"
    INDEX 01 01:19:74
  TRACK 61 AUDIO
    TITLE "0:"
    INDEX 01 01:23:50
  TRACK 62 AUDIO
    TITLE "7:cjc057_05459"
    INDEX 01 01:24:57
  TRACK 63 AUDIO
    TITLE "0:"
    INDEX 01 01:26:07
  TRACK 64 AUDIO
    TITLE "8:cjc057_05460"
    INDEX 01 01:26:38
  TRACK 65 AUDIO
    TITLE "0:"
    INDEX 01 01:27:42
  TRACK 66 AUDIO
    TITLE "9:cjc057_05461"
    INDEX 01 01:28:10
  TRACK 67 AUDIO
    TITLE "0:"
    INDEX 01 01:31:65
  TRACK 68 AUDIO
    TITLE "7:cjc057_05462"
    INDEX 01 01:32:68
  TRACK 69 AUDIO
    TITLE "0:"
    INDEX 01 01:34:06
  TRACK 70 AUDIO
    TITLE "8:cjc057_05463"
    INDEX 01 01:34:34
  TRACK 71 AUDIO
    TITLE "0:"
    INDEX 01 01:35:59
  TRACK 72 AUDIO
    TITLE "9:cjc057_05464"
    INDEX 01 01:36:27
  TRACK 73 AUDIO
    TITLE "0:"
    INDEX 01 01:40:40
